<svg width="24" height="24" viewBox="0 0 24 24" fill="none" xmlns="http://www.w3.org/2000/svg">
<path d="M12 6.47039C14.76 6.47039 17 8.71039 17 11.4704C17 11.9804 16.9 12.4704 16.76 12.9304L19.82 15.9904C21.21 14.7604 22.31 13.2204 23 11.4604C21.27 7.08039 17 3.97039 12 3.97039C10.73 3.97039 9.51 4.17039 8.36 4.54039L10.53 6.71039C11 6.57039 11.49 6.47039 12 6.47039ZM2.71 3.13039C2.32 3.52039 2.32 4.15039 2.71 4.54039L4.68 6.51039C3.06 7.80039 1.77 9.50039 1 11.4704C2.73 15.8604 7 18.9704 12 18.9704C13.52 18.9704 14.97 18.6704 16.31 18.1504L19.03 20.8704C19.42 21.2604 20.05 21.2604 20.44 20.8704C20.83 20.4804 20.83 19.8504 20.44 19.4604L4.13 3.13039C3.74 2.74039 3.1 2.74039 2.71 3.13039ZM12 16.4704C9.24 16.4704 7 14.2304 7 11.4704C7 10.7004 7.18 9.97039 7.49 9.33039L9.06 10.9004C9.03 11.0804 9 11.2704 9 11.4704C9 13.1304 10.34 14.4704 12 14.4704C12.2 14.4704 12.38 14.4404 12.57 14.4004L14.14 15.9704C13.49 16.2904 12.77 16.4704 12 16.4704ZM14.97 11.1404C14.82 9.74039 13.72 8.65039 12.33 8.50039L14.97 11.1404Z" fill="#313033"/>
</svg>
